<svg width="225" height="170" viewBox="0 0 225 170" fill="none" xmlns="http://www.w3.org/2000/svg">
<path fill-rule="evenodd" clip-rule="evenodd" d="M98.6562 74.2583C96.6566 75.7186 96.9748 78.592 97.5769 80.6796C98.4632 83.7535 100.229 86.599 102.243 89.0518C105.816 93.4032 111.881 98.2892 117.472 94.469C122.451 91.0668 125.592 84.202 126.676 78.4195C127.011 76.6325 127.458 73.9699 125.883 72.6265C123.556 70.6407 119.45 71.0019 116.641 71.2576C114.79 71.4258 113.005 71.9972 111.177 71.7291C106.928 71.1053 102.2 71.6702 98.6562 74.2583Z" fill="#FF5678"/>
<path fill-rule="evenodd" clip-rule="evenodd" d="M184.795 97.0288C180.744 102.205 173.858 103.023 167.741 102.972C164.069 102.942 160.389 102.663 156.788 101.909C154.847 101.503 152.919 100.964 151.043 100.317C149.804 99.8896 147.96 99.676 147.432 98.3386C146.042 94.8102 147.065 90.3851 147.637 86.8036C147.929 84.9819 148.148 83.1493 148.431 81.3262C148.612 80.1597 148.699 78.8692 149.184 77.7779C149.752 76.4996 150.47 76.7548 151.672 77.1079C153.327 77.5948 155.027 77.7972 156.729 78.059C160.884 78.6981 164.508 79.9868 168.284 81.8134C172.017 83.6192 175.638 85.402 178.968 87.913C180.655 89.1858 182.109 90.5671 183.463 92.1889C184.509 93.442 186.071 95.3981 184.795 97.0288ZM167.088 120.021C167.056 120.578 160.708 118.895 159.872 118.707C154.391 117.468 148.801 116.057 143.626 113.819C138.796 111.731 134.54 109.341 130.739 105.63C128.967 103.9 127.373 102.079 125.848 100.139C125.084 99.1662 124.04 99.2791 123.188 98.4566C122.421 97.7162 121.833 97.138 122.073 96.0312C123.988 96.5397 127.526 99.736 129.511 98.1219C130.643 97.202 129.074 96.2408 128.349 95.7078C126.986 94.7053 125.821 93.4686 124.738 92.1706C126.598 92.5338 128.329 93.2353 129.947 94.2119C130.666 94.6458 133.13 96.2189 133.704 94.7192C134.057 93.796 132.386 92.6359 131.865 92.125C130.586 90.871 129.205 89.407 128.526 87.7209C130.205 87.3284 131.788 88.636 132.932 89.7009C134.201 90.8834 135.757 92.1243 136.822 93.4867C137.371 94.1893 137.49 95.0194 137.919 95.7773C138.402 96.63 139.174 97.3609 139.912 97.9917C141.334 99.2076 142.997 100.103 144.703 100.843C148.604 102.535 152.784 103.732 156.942 104.572C158.981 104.984 160.971 105.174 163.041 105.244C164.65 105.298 165.362 105.783 165.976 107.276C167.638 111.317 167.337 115.762 167.088 120.021ZM119.346 89.2303C118.416 90.1071 117.207 90.6572 116.235 91.5001C115.379 92.2418 114.392 93.0332 113.437 93.6331C112.418 94.2732 111.656 93.8243 110.738 93.245C109.661 92.5655 108.422 92.2899 107.312 91.6818C103.475 89.5779 98.781 84.4227 99.4973 79.6893C99.8007 77.6832 100.83 75.7091 102.7 74.7987C104.398 73.9724 106.866 73.5135 108.683 74.2046C109.708 74.5944 110.441 75.4548 111.097 76.3008C111.863 77.2869 112.156 77.1315 112.936 76.1804C114.331 74.4788 116.631 72.986 118.906 73.0219C120.036 73.04 121.159 73.28 122.177 73.7526C122.315 73.8168 122.392 74.0107 122.53 74.0764C122.7 74.1572 122.98 73.9892 123.098 74.0647C123.396 74.2548 123.694 74.8487 123.866 75.1502C124.556 76.3595 125.798 78.731 124.546 79.7493C124.545 79.7497 124.602 81.127 124.585 81.2839C124.496 82.1056 124.214 82.7838 123.851 83.5353C122.76 85.7925 121.15 87.5303 119.346 89.2303ZM121.201 108.329C120.32 108.605 119.37 105.823 120.216 105.379C121.022 104.955 121.999 108.079 121.201 108.329ZM107.361 105.002C107.055 106.053 106.926 107.246 106.18 108.101C105.497 107.284 105.429 105.777 106.092 104.937C106.471 104.458 107.694 103.854 107.361 105.002ZM135.559 86.59C135.554 86.6166 136.62 87.1299 136.1 87.691C135.39 88.4576 135.487 86.9656 135.559 86.59ZM139.961 78.0254C139.949 79.0879 137.717 78.8313 137.732 77.7626C137.752 76.4473 139.975 76.8989 139.961 78.0254ZM137.296 69.1449C137.517 68.172 141.401 66.8186 141.295 68.5142C141.242 69.3642 136.827 71.2132 137.296 69.1449ZM97.4806 102.136C97.0453 102.664 96.4268 102.871 95.9052 103.276C95.3579 103.7 94.9667 104.251 94.4888 104.749C93.1762 106.116 91.5961 107.239 90.18 108.495C87.5767 110.804 85.0828 113.286 82.1964 115.244C77.0384 118.742 71.0568 120.656 65.1189 122.331C64.6269 122.47 63.2099 123.03 62.7232 122.613C62.1983 122.163 62.4652 120.579 62.4894 119.981C62.5878 117.526 62.8719 115.042 62.8412 112.59C62.8284 111.583 62.5358 110.152 63.0572 109.231C63.6394 108.202 65.2652 107.901 66.2707 107.514C69.3273 106.337 72.2716 104.351 74.9716 102.513C78.2906 100.252 81.6425 97.9546 85.0582 95.8446C88.4044 93.7774 92.0956 92.393 95.8283 91.2123C96.0012 91.5784 94.2201 92.7565 94.0164 92.9216C93.04 93.7136 91.9776 94.5346 91.2527 95.5801C90.7394 96.3203 90.2132 97.9951 91.6302 98.038C92.3171 98.0588 93.3326 97.3894 93.9556 97.1729C94.9843 96.8152 96.0445 96.5642 97.1207 96.4009C96.1954 97.4271 93.0595 99.2705 93.6301 100.977C94.1836 102.633 97.3857 100.701 98.4879 100.701C98.3072 101.278 97.8531 101.686 97.4806 102.136ZM59.6516 106.759C57.6009 107.485 55.499 107.898 53.3826 108.367C51.3653 108.815 49.5007 109.152 47.4344 108.89C44.5817 108.528 41.4247 107.338 41.063 104.072C40.6341 100.203 43.3466 96.6475 45.6757 93.8715C48.5104 90.494 51.6934 87.4745 55.1431 84.7406C58.5888 82.0091 62.3081 79.6012 66.2045 77.5683C69.1689 76.0217 72.5168 75.0827 75.6512 73.9219C76.2476 73.7012 77.8968 72.9254 78.4545 73.5684C78.9054 74.0884 78.2919 74.9545 78.0865 75.4373C77.6857 76.3785 77.6305 77.3261 77.527 78.3366C77.065 82.8496 76.5086 87.3612 76.2526 91.8937C76.1814 93.1567 76.0558 94.4782 76.1289 95.7421C76.1694 96.4423 76.531 97.3339 76.2902 98.0174C75.8272 99.3314 73.7071 100.201 72.5834 100.788C70.572 101.839 68.442 102.623 66.4098 103.628C64.178 104.732 62.0049 105.925 59.6516 106.759ZM88.0913 77.435C88.6542 77.3571 89.4973 77.2026 89.9992 77.57C90.6535 78.0491 90.4819 78.7156 89.8774 79.0631C89.4002 79.3378 88.2831 79.4128 87.8116 79.1636C87.0082 78.7392 87.1443 77.5663 88.0913 77.435ZM91.2085 87.8852C90.7537 88.6484 89.0915 89.1489 89.2363 87.7247C89.3604 86.5052 92.0464 86.4798 91.2085 87.8852ZM90.5915 66.3852C91.3228 66.6706 92.6497 66.9147 92.8666 67.8623C93.0683 68.7442 92.2388 68.686 91.6401 68.4432C91.1477 68.244 88.9541 66.37 90.5915 66.3852ZM205.156 100.029C204.729 98.3543 205.054 96.5009 204.818 94.7861C204.59 93.1237 204.178 91.5962 203.588 90.0296C202.281 86.5615 200.783 83.4395 198.664 80.3956C194.674 74.6637 190.044 69.6148 184.453 65.4281C178.934 61.295 172.822 57.9359 166.348 55.5818C159.483 53.0852 152.572 52.2164 145.333 51.7378C143.171 51.595 141.011 51.4257 138.861 51.1505C137.29 50.9495 135.32 50.7019 133.766 51.1866C132.791 51.4914 132.245 52.3487 133.309 52.9114C134.062 53.3103 135.049 53.3581 135.882 53.4641C134.876 56.6826 133.24 59.9124 130.647 62.1286C128.115 64.2923 124.727 65.0341 121.532 65.5828C119.8 65.8801 117.86 66.1103 116.1 65.9819C114.988 65.9011 114.12 65.3823 113.671 66.5364C113.36 67.3384 113.212 68.2183 112.802 67.0075C112.316 65.576 112.078 65.585 110.567 65.1784C107.477 64.347 103.935 63.5884 101.24 61.7902C98.4437 59.9246 97.4712 56.9066 95.91 54.0963C95.524 53.4017 94.3594 51.9959 94.9544 51.1999C95.4987 50.4721 97.2682 50.5447 98.0785 50.4688C98.9337 50.3886 99.7941 50.3853 100.652 50.3517C101.149 50.3324 102.149 50.5376 101.949 49.7897C101.647 48.6623 98.4147 48.8068 97.612 48.7885C96.1192 48.7548 94.6057 48.7896 93.1204 48.9549C85.7558 49.7755 78.3249 51.2927 71.1983 53.3158C57.3713 57.2409 43.9799 64.4734 33.8891 74.893C24.2029 84.8949 21.1342 101.539 27.0888 114.309C30.1834 120.946 36.8992 123.673 43.4092 125.875C46.8431 127.036 50.4791 127.945 54.1295 127.726C55.8811 127.62 57.5431 127.145 59.2515 126.787C59.9966 126.631 60.8445 126.382 61.6098 126.445C62.189 126.492 62.7456 127.028 63.289 126.743C63.6746 126.541 63.8423 125.961 64.3136 125.714C64.8796 125.418 65.5656 125.311 66.1768 125.161C67.8756 124.746 69.5204 124.071 71.1809 123.519C72.8981 122.947 74.5185 122.211 76.1661 121.467C76.9979 121.09 78.923 119.562 79.4652 120.68C79.7122 121.19 79.607 122.173 79.6672 122.708C79.7726 123.643 79.8966 124.577 80.0321 125.508C80.3305 127.559 80.6878 129.601 81.0539 131.641C81.7146 135.321 82.5662 138.844 83.9901 142.306C85.1269 145.07 86.1249 148.203 88.2361 150.402C89.1576 151.362 90.4149 151.794 91.7368 151.492C93.2401 151.149 93.9885 149.773 94.9013 148.661C96.9093 146.213 100.225 144.337 103.286 143.662C107.035 142.835 110.687 144.044 114.265 145.072C118.05 146.16 121.903 147.196 125.619 148.503C129.081 149.721 132.819 151.52 136.573 151.363C139.848 151.227 142.906 148.542 145.267 146.496C147.639 144.441 150.604 141.431 154.015 141.674C155.708 141.794 157.251 142.617 158.9 142.951C160.711 143.319 162.638 143.371 164.479 143.508C166.765 143.677 171.878 143.077 172.724 140.307C172.849 139.896 172.85 139.05 172.311 138.885C171.816 138.734 171.563 139.318 171.093 139.291C170.138 139.237 169.392 137.559 168.867 136.91C166.749 134.288 163.845 132.332 161.469 129.963C158.786 127.289 156.495 124.049 154.473 120.853C155.387 120.613 156.373 121.011 157.258 121.2C158.333 121.429 159.38 121.706 160.439 122C161.607 122.324 162.791 122.547 163.976 122.793C164.86 122.977 166.033 123.033 166.831 123.479C167.527 123.869 167.916 124.288 168.781 124.401C169.66 124.516 170.563 124.419 171.447 124.413C173.836 124.397 176.22 124.352 178.598 124.098C187.002 123.199 195.909 119.618 200.962 112.512C202.336 110.579 203.444 108.438 204.143 106.165C204.689 104.391 205.631 101.891 205.156 100.029Z" fill="black"/>
<path fill-rule="evenodd" clip-rule="evenodd" d="M107.909 38.5681C106.414 39.0357 104.646 38.4856 103.787 37.1409C102.912 35.7736 102.314 34.1913 102.194 32.5626C102.079 31.002 102.431 29.422 103.344 28.1408C104.316 26.7779 106.298 25.2504 108.074 25.7236C108.448 25.8235 108.787 26.0636 109.122 26.302C109.478 26.5548 109.831 26.8056 110.221 26.884C110.321 26.9041 110.391 26.9232 110.444 26.9371C110.514 26.9561 110.552 26.9663 110.585 26.9586C110.624 26.9497 110.657 26.9176 110.727 26.8488C110.767 26.8094 110.82 26.758 110.893 26.6923C111.043 26.557 111.189 26.3534 111.331 26.1542H111.331C111.426 26.0202 111.52 25.8881 111.614 25.7803C111.793 25.5729 111.972 25.3633 112.152 25.1532C113.307 23.8029 114.485 22.4268 115.897 21.3588C118.822 19.1459 122.711 18.1008 126.34 18.1527C128.549 18.1842 130.618 18.8439 132.676 19.5939C132.849 19.6568 133.023 19.7193 133.197 19.782L133.198 19.7822C134.85 20.3763 136.555 20.9891 137.878 22.1795C140.51 24.5474 141.195 28.4678 141.626 31.8217C142.092 35.4539 140.807 38.5788 139.476 41.8161V41.8165L139.476 41.8172V41.8174C139.273 42.3101 139.07 42.8053 138.871 43.3051C137.464 46.8466 134.881 49.7155 131.811 51.9016C130.202 53.0467 128.425 53.738 126.565 54.3441C126.179 54.4698 125.796 54.6044 125.413 54.7387H125.412H125.412C123.92 55.262 122.433 55.7835 120.825 55.7811C117.755 55.7767 113.826 54.308 112.518 51.2615C111.923 49.8743 112.502 49.6252 113.694 50.3792C113.902 50.5109 114.109 50.6439 114.316 50.7767V50.7769H114.317L114.317 50.7776C115.829 51.7476 117.331 52.7118 119.107 53.1383C123.024 54.0795 127.714 52.6215 131.148 50.6975C134.581 48.7741 136.886 45.8846 138.426 42.2869C139.98 38.6571 140.584 35.0805 139.985 31.1676C139.477 27.8515 138.466 24.8225 135.5 23.0224C129.097 19.137 120.469 19.4501 114.775 24.4995C113.994 25.1917 113.222 25.8653 112.417 26.5265C111.905 26.9466 111.303 27.4506 111.377 28.1771C111.394 28.3374 111.493 28.6156 111.605 28.9275C111.927 29.8271 112.349 31.0085 111.172 30.4615C110.687 30.2359 110.285 29.9289 109.889 29.6263C109.237 29.1278 108.6 28.6413 107.631 28.5514C105.973 28.3974 103.997 29.6799 103.501 31.2942C103.028 32.8346 103.871 34.9421 105.192 35.8256C105.935 36.3227 106.746 36.2984 107.585 36.2731C107.669 36.2707 107.754 36.2681 107.839 36.2661C107.903 36.2645 107.984 36.2603 108.076 36.2554C108.64 36.2253 109.626 36.1731 109.888 36.5952C110.428 37.4636 108.524 38.3762 107.909 38.5681ZM127.86 45.4396C128.14 44.8838 128.418 44.3342 128.732 43.8375C128.878 43.6071 129.116 43.4479 129.344 43.2954H129.344C129.409 43.2516 129.474 43.2082 129.535 43.1639C130.303 44.3694 129.545 45.6608 128.891 46.7729C128.815 46.9019 128.741 47.0285 128.671 47.1523C128.464 47.5153 128.262 47.8934 128.058 48.2747C127.623 49.0896 127.18 49.919 126.667 50.6481C125.415 52.4251 122.691 50.5027 122.61 48.6763C122.548 47.2782 123.531 47.8867 124.162 48.4089C124.812 48.9468 125.12 49.0807 125.8 48.4932C126.716 47.7034 127.294 46.5588 127.86 45.4396ZM120.486 40.5152C120.762 38.6815 119.516 40.1055 119.249 40.9488C118.92 41.9894 118.648 43.4592 119.145 44.4918C120.059 46.3873 122.636 45.4839 123.875 44.477C124.457 44.0048 125.271 43.0214 125.243 42.2017C125.195 40.7755 124.105 41.6306 123.434 42.1565H123.434C123.348 42.2236 123.27 42.2853 123.201 42.3363C123.173 42.3568 123.143 42.3788 123.112 42.4018C122.49 42.8649 121.253 43.785 120.529 43.3297C119.863 42.9116 120.13 41.9183 120.34 41.137C120.403 40.9039 120.46 40.6896 120.486 40.5152ZM124.172 33.12C125.643 32.8249 127.538 32.977 128.818 33.8172C130.467 34.8996 128.299 35.679 127.359 35.776C126.222 35.8929 124.769 35.9703 123.724 35.4083C122.244 34.6117 122.738 33.4082 124.172 33.12ZM107.376 30.3714C106.251 30.1512 104.681 30.7231 105.456 32.0707C106.034 33.0766 107.458 33.415 108.572 33.68C108.707 33.7121 108.838 33.7433 108.962 33.7743C110.201 34.0842 110.814 33.6273 110.387 32.2507C109.974 30.9184 108.589 30.6091 107.376 30.3714ZM130.863 44.467C130.967 44.0316 131.571 42.3949 131.978 43.5964C132.041 43.781 132.049 44.052 132.057 44.3413C132.077 45.0724 132.101 45.9222 133.024 45.7987C133.501 45.7352 133.726 45.2535 133.936 44.8072C134.039 44.5861 134.139 44.3736 134.263 44.2249C135.522 42.7146 135.136 45.5711 134.807 46.2861C134.082 47.8617 132.052 48.9474 131.046 46.9484C130.671 46.2049 130.673 45.2663 130.863 44.467ZM135.603 38.115H135.603C136.187 38.7984 137.161 39.9377 137.799 39.1125C138.422 38.307 137.35 37.0587 136.816 36.4365C136.792 36.4095 136.77 36.3836 136.749 36.359C136.734 36.3411 136.718 36.3221 136.7 36.3019C136.217 35.7339 134.978 34.2776 134.348 35.3685C133.955 36.0514 134.878 37.3385 135.317 37.7905C135.395 37.8709 135.492 37.9847 135.603 38.115ZM118.448 51.5191C117.846 50.8219 117.909 49.5296 118.25 48.7228C118.528 48.0658 118.993 48.879 119.263 49.3499C119.329 49.4647 119.383 49.559 119.42 49.6069C119.54 49.7634 119.714 49.9083 119.892 50.0573C120.263 50.3677 120.654 50.6948 120.629 51.1754C120.566 52.3494 118.978 52.1316 118.448 51.5191Z" fill="black"/>
<path fill-rule="evenodd" clip-rule="evenodd" d="M170.96 42.8421C170.298 42.6612 169.637 42.4804 168.98 42.2942C167.451 41.8608 168.896 40.8855 169.804 40.9541C170.508 41.007 171.194 41.2554 171.87 41.4995C172.169 41.6073 172.465 41.7145 172.76 41.8037C175.699 42.6929 178.424 43.6653 181.17 45.0454C181.58 45.2515 183.384 46.2283 182.191 46.6609C181.564 46.888 180.303 46.2044 179.419 45.7259C179.137 45.5729 178.894 45.441 178.722 45.3662C176.229 44.2833 173.587 43.5608 170.96 42.8421ZM195.923 64.788C186.09 58.6425 176.298 52.6233 165.177 49.1026C164.597 48.9193 164.417 48.3985 164.721 47.8825C165.041 47.3386 165.657 47.3586 166.203 47.3763L166.25 47.3778C167.689 47.4236 169.094 47.8814 170.455 48.3248L170.628 48.3812C173.74 49.3935 176.703 50.7977 179.626 52.2655C184.749 54.8381 189.68 57.9508 194.199 61.49C195.144 62.2296 196.113 62.829 197.14 63.4338C197.204 63.4714 197.27 63.5097 197.338 63.5491C197.973 63.9159 198.759 64.3705 198.988 65.0837C199.632 67.091 196.384 65.0762 195.923 64.788ZM37.143 62.9614C33.5496 65.7777 30.0382 68.7099 26.7895 71.924C25.6329 73.0684 24.6689 74.3773 23.7059 75.6855C23.2649 76.2845 22.8239 76.8832 22.3647 77.4658C22.3154 77.5283 22.2612 77.6013 22.2021 77.6808C21.8324 78.177 21.2795 78.9197 20.6762 78.8376C19.9085 78.7335 19.7533 77.4014 19.7777 76.8197C19.8616 74.8359 21.66 72.9201 22.9425 71.5541C24.3853 70.0182 25.9278 68.5214 27.503 67.1228C29.2373 65.5831 31.1195 64.2596 33.0374 62.964C33.7384 62.4906 34.4283 61.9896 35.1198 61.4878C36.2859 60.6416 37.4553 59.7929 38.6851 59.0693C39.6077 58.5266 41.1396 58.32 40.6376 59.9538C40.3442 60.9083 39.1922 61.631 38.187 62.2617C37.7974 62.5061 37.43 62.7365 37.143 62.9614ZM24.2723 59.0569C26.2951 58.4225 28.1707 57.4377 30.0463 56.4529C31.2684 55.8112 32.4908 55.1695 33.7535 54.625C34.6617 54.2332 35.583 53.8748 36.5041 53.5164C37.3327 53.1939 38.161 52.8716 38.9799 52.5252C39.0571 52.4924 39.1406 52.4614 39.2265 52.4293C39.6554 52.2695 40.1421 52.088 40.2001 51.5789C40.2796 50.8741 39.8712 50.8951 39.3722 50.9208H39.3719C39.3399 50.9224 39.3073 50.9241 39.2744 50.9255C38.1371 50.977 36.9345 51.4848 35.7981 51.9647C35.329 52.1631 34.8708 52.3565 34.4334 52.511C34.0438 52.6487 33.6538 52.7831 33.264 52.9172C32.0432 53.3378 30.8259 53.7573 29.6352 54.2715C28.051 54.9554 26.4331 55.6631 25.0064 56.6477C24.9559 56.6827 24.9032 56.7183 24.8491 56.755C24.3767 57.0753 23.805 57.4632 23.6006 57.9922C23.3961 58.5204 23.5088 59.2966 24.2723 59.0569Z" fill="black"/>
<path fill-rule="evenodd" clip-rule="evenodd" d="M108.019 45.4508C108.211 44.8859 110.575 38.7097 109.649 38.5235C108.669 38.3258 107.359 41.9093 107.075 42.5568C106.024 44.9479 105.403 47.5134 104.916 50.0782C104.576 51.8641 104.278 53.6936 104.397 55.5193C104.488 56.9225 105.063 57.135 106.011 57.9947C106.011 53.7327 106.654 49.4847 108.019 45.4508Z" fill="black"/>
</svg>