<svg width="100" height="53" viewBox="0 0 100 53" fill="none" xmlns="http://www.w3.org/2000/svg">
<rect x="3" y="2" width="95" height="39" rx="19.5" fill="#FF385A"/>
<path d="M50 50L39.6077 38L60.3923 38L50 50Z" fill="#FF385A"/>
<path d="M43.9141 28H42.1914V23.5771H37.7412V28H36.0117V18.0469H37.7412V22.1895H42.1914V18.0469H43.9141V28ZM49.0615 28.1367C48.0088 28.1367 47.1543 27.8063 46.498 27.1455C45.8464 26.4801 45.5205 25.596 45.5205 24.4932V24.2881C45.5205 23.5498 45.6618 22.8913 45.9443 22.3125C46.2314 21.7292 46.6325 21.2757 47.1475 20.9521C47.6624 20.6286 48.2367 20.4668 48.8701 20.4668C49.8773 20.4668 50.6543 20.7881 51.2012 21.4307C51.7526 22.0732 52.0283 22.9824 52.0283 24.1582V24.8281H47.1953C47.2454 25.4388 47.4482 25.9219 47.8037 26.2773C48.1637 26.6328 48.6149 26.8105 49.1572 26.8105C49.9183 26.8105 50.5381 26.5029 51.0166 25.8877L51.9121 26.7422C51.6159 27.1842 51.2194 27.5283 50.7227 27.7744C50.2305 28.016 49.6768 28.1367 49.0615 28.1367ZM48.8633 21.7998C48.4076 21.7998 48.0384 21.9593 47.7559 22.2783C47.4779 22.5973 47.3001 23.0417 47.2227 23.6113H50.3877V23.4883C50.3512 22.9323 50.2031 22.513 49.9434 22.2305C49.6836 21.9434 49.3236 21.7998 48.8633 21.7998ZM57.1963 22.1211C56.9775 22.0846 56.752 22.0664 56.5195 22.0664C55.7585 22.0664 55.2458 22.3581 54.9814 22.9414V28H53.3203V20.6035H54.9062L54.9473 21.4307C55.3483 20.7881 55.9043 20.4668 56.6152 20.4668C56.8522 20.4668 57.0482 20.4987 57.2031 20.5625L57.1963 22.1211ZM61.3662 28.1367C60.3135 28.1367 59.459 27.8063 58.8027 27.1455C58.151 26.4801 57.8252 25.596 57.8252 24.4932V24.2881C57.8252 23.5498 57.9665 22.8913 58.249 22.3125C58.5361 21.7292 58.9372 21.2757 59.4521 20.9521C59.9671 20.6286 60.5413 20.4668 61.1748 20.4668C62.182 20.4668 62.959 20.7881 63.5059 21.4307C64.0573 22.0732 64.333 22.9824 64.333 24.1582V24.8281H59.5C59.5501 25.4388 59.7529 25.9219 60.1084 26.2773C60.4684 26.6328 60.9196 26.8105 61.4619 26.8105C62.223 26.8105 62.8428 26.5029 63.3213 25.8877L64.2168 26.7422C63.9206 27.1842 63.5241 27.5283 63.0273 27.7744C62.5352 28.016 61.9814 28.1367 61.3662 28.1367ZM61.168 21.7998C60.7122 21.7998 60.3431 21.9593 60.0605 22.2783C59.7826 22.5973 59.6048 23.0417 59.5273 23.6113H62.6924V23.4883C62.6559 22.9323 62.5078 22.513 62.248 22.2305C61.9883 21.9434 61.6283 21.7998 61.168 21.7998Z" fill="white"/>
</svg>