<svg width="94" height="123" viewBox="0 0 94 123" fill="none" xmlns="http://www.w3.org/2000/svg">
<g clip-path="url(#clip0)">
<path fill-rule="evenodd" clip-rule="evenodd" d="M12.71 0H55.71C59.0802 0.00528141 62.311 1.34574 64.695 3.7279C67.0791 6.11006 68.4221 9.3398 68.43 12.71V31.52H64.78V16H3.66V105.07H64.79V95.22L68.44 92.22V110.15C68.4321 113.518 67.0904 116.747 64.7086 119.129C62.3267 121.51 59.0985 122.852 55.73 122.86H12.73C9.36152 122.857 6.13117 121.521 3.74555 119.143C1.35993 116.765 0.0132191 113.538 0 110.17L0 12.71C0.00792273 9.34153 1.34955 6.1133 3.73142 3.73142C6.1133 1.34955 9.34153 0.00792273 12.71 0V0ZM36.4 52C36.4343 51.5341 36.6436 51.0985 36.9858 50.7806C37.328 50.4626 37.7779 50.2859 38.245 50.2859C38.7121 50.2859 39.1619 50.4626 39.5042 50.7806C39.8464 51.0985 40.0557 51.5341 40.09 52V54.38L42.09 53.06C42.2834 52.876 42.5146 52.7365 42.7676 52.6513C43.0206 52.5661 43.2892 52.5372 43.5545 52.5668C43.8198 52.5964 44.0754 52.6837 44.3034 52.8225C44.5314 52.9613 44.7262 53.1483 44.8743 53.3705C45.0224 53.5926 45.1201 53.8444 45.1605 54.1082C45.201 54.3721 45.1832 54.6416 45.1085 54.8979C45.0338 55.1541 44.9039 55.391 44.7279 55.5917C44.552 55.7925 44.3343 55.9523 44.09 56.06L41.55 57.77L44.1 59.46C44.447 59.7487 44.6757 60.1549 44.7427 60.6013C44.8096 61.0477 44.7102 61.5032 44.4632 61.881C44.2163 62.2588 43.839 62.5327 43.4033 62.6505C42.9676 62.7684 42.5037 62.7219 42.1 62.52L40.1 61.2V63.59C40.0657 64.0559 39.8564 64.4915 39.5142 64.8094C39.172 65.1274 38.7221 65.3041 38.255 65.3041C37.7879 65.3041 37.3381 65.1274 36.9958 64.8094C36.6536 64.4915 36.4443 64.0559 36.41 63.59V61.27L34.41 62.59C34.2106 62.746 33.981 62.8589 33.7357 62.9216C33.4904 62.9843 33.2348 62.9955 32.985 62.9543C32.7352 62.9132 32.4966 62.8206 32.2844 62.6826C32.0722 62.5445 31.8909 62.3639 31.7521 62.1522C31.6133 61.9404 31.5199 61.7022 31.4778 61.4525C31.4358 61.2029 31.446 60.9472 31.5078 60.7017C31.5697 60.4562 31.6818 60.2262 31.8371 60.0262C31.9924 59.8263 32.1874 59.6607 32.41 59.54L34.96 57.84L32.41 56.14C32.1962 56.0147 32.01 55.8473 31.8628 55.6479C31.7156 55.4485 31.6104 55.2212 31.5537 54.98C31.497 54.7387 31.4899 54.4884 31.5328 54.2443C31.5757 54.0002 31.6677 53.7673 31.8033 53.5599C31.9389 53.3524 32.1152 53.1746 32.3216 53.0374C32.528 52.9001 32.7601 52.8062 33.0038 52.7613C33.2476 52.7164 33.4979 52.7215 33.7396 52.7763C33.9813 52.8311 34.2094 52.9344 34.41 53.08L36.41 54.4V52H36.4ZM75.13 52C75.13 51.512 75.3239 51.044 75.6689 50.6989C76.014 50.3539 76.482 50.16 76.97 50.16C77.458 50.16 77.926 50.3539 78.2711 50.6989C78.6161 51.044 78.81 51.512 78.81 52V54.38L80.81 53.06C81.2042 52.8862 81.6471 52.857 82.0607 52.9776C82.4742 53.0982 82.832 53.3609 83.071 53.7193C83.31 54.0778 83.4148 54.5091 83.3671 54.9372C83.3193 55.3654 83.1221 55.763 82.81 56.06L80.26 57.77L82.81 59.46C83.0421 59.5761 83.247 59.7399 83.4112 59.9407C83.5755 60.1416 83.6955 60.3749 83.7632 60.6254C83.8309 60.8759 83.8449 61.1378 83.8042 61.3941C83.7636 61.6504 83.6691 61.8951 83.5272 62.1123C83.3852 62.3295 83.1989 62.5143 82.9805 62.6544C82.7621 62.7945 82.5166 62.8868 82.26 62.9253C82.0034 62.9638 81.7415 62.9476 81.4916 62.8777C81.2417 62.8079 81.0094 62.686 80.81 62.52L78.81 61.2V63.59C78.81 64.078 78.6161 64.546 78.2711 64.8911C77.926 65.2361 77.458 65.43 76.97 65.43C76.482 65.43 76.014 65.2361 75.6689 64.8911C75.3239 64.546 75.13 64.078 75.13 63.59V61.27L73.13 62.59C72.9317 62.7618 72.699 62.8891 72.4475 62.9636C72.196 63.0381 71.9314 63.0579 71.6716 63.0217C71.4118 62.9856 71.1627 62.8943 70.9411 62.754C70.7194 62.6137 70.5304 62.4276 70.3865 62.2083C70.2427 61.9889 70.1474 61.7413 70.1071 61.4821C70.0667 61.2229 70.0823 60.9581 70.1527 60.7054C70.2231 60.4527 70.3468 60.218 70.5153 60.017C70.6839 59.816 70.8934 59.6534 71.13 59.54L73.68 57.84L71.13 56.14C70.8979 56.0239 70.693 55.8601 70.5288 55.6593C70.3645 55.4584 70.2445 55.2251 70.1768 54.9746C70.1091 54.7241 70.0951 54.4622 70.1358 54.2059C70.1764 53.9496 70.2709 53.7049 70.4128 53.4877C70.5548 53.2705 70.7411 53.0857 70.9595 52.9456C71.1779 52.8055 71.4234 52.7132 71.68 52.6747C71.9366 52.6362 72.1985 52.6524 72.4484 52.7223C72.6983 52.7921 72.9305 52.914 73.13 53.08L75.13 54.4V52ZM55.77 52C55.77 51.512 55.9639 51.044 56.3089 50.6989C56.654 50.3539 57.122 50.16 57.61 50.16C58.098 50.16 58.566 50.3539 58.9111 50.6989C59.2561 51.044 59.45 51.512 59.45 52V54.38L61.45 53.06C61.8428 52.9001 62.2787 52.8809 62.6841 53.0054C63.0895 53.13 63.4393 53.3908 63.6746 53.7436C63.9098 54.0965 64.0159 54.5197 63.975 54.9418C63.9341 55.3639 63.7486 55.7589 63.45 56.06L60.9 57.77L63.45 59.46C63.6821 59.5761 63.887 59.7399 64.0512 59.9407C64.2155 60.1416 64.3355 60.3749 64.4032 60.6254C64.4709 60.8759 64.4849 61.1378 64.4442 61.3941C64.4036 61.6504 64.3091 61.8951 64.1672 62.1123C64.0252 62.3295 63.8389 62.5143 63.6205 62.6544C63.4021 62.7945 63.1566 62.8868 62.9 62.9253C62.6434 62.9638 62.3815 62.9476 62.1316 62.8777C61.8817 62.8079 61.6494 62.686 61.45 62.52L59.45 61.2V63.59C59.45 64.078 59.2561 64.546 58.9111 64.8911C58.566 65.2361 58.098 65.43 57.61 65.43C57.122 65.43 56.654 65.2361 56.3089 64.8911C55.9639 64.546 55.77 64.078 55.77 63.59V61.27L53.77 62.59C53.3666 62.8088 52.8957 62.868 52.4506 62.7559C52.0056 62.6438 51.6189 62.3686 51.3673 61.9848C51.1156 61.6011 51.0173 61.1367 51.0919 60.6839C51.1665 60.2311 51.4085 59.8228 51.77 59.54L54.32 57.84L51.77 56.14C51.5379 56.0239 51.333 55.8601 51.1688 55.6593C51.0045 55.4584 50.8845 55.2251 50.8168 54.9746C50.7491 54.7241 50.7351 54.4622 50.7758 54.2059C50.8164 53.9496 50.9109 53.7049 51.0528 53.4877C51.1948 53.2705 51.3811 53.0857 51.5995 52.9456C51.8179 52.8055 52.0634 52.7132 52.32 52.6747C52.5766 52.6362 52.8385 52.6524 53.0884 52.7223C53.3383 52.7921 53.5706 52.914 53.77 53.08L55.77 54.4V52ZM26.55 39.11H88.17C89.4999 39.1309 90.7686 39.6726 91.7035 40.6188C92.6384 41.5649 93.1649 42.8399 93.17 44.17V71.24C93.1716 72.5911 92.6533 73.8911 91.7224 74.8704C90.7915 75.8497 89.5195 76.4332 88.17 76.5H66.53C61 83.51 53.79 87.73 45.27 90C44.9354 90.0876 44.5832 90.0817 44.2517 89.983C43.9202 89.8843 43.6221 89.6964 43.39 89.44C43.2253 89.2574 43.0984 89.044 43.0168 88.812C42.9351 88.5801 42.9002 88.3342 42.9142 88.0887C42.9281 87.8432 42.9906 87.6029 43.098 87.3817C43.2055 87.1605 43.3557 86.9628 43.54 86.8C44.5461 85.9254 45.4639 84.9541 46.28 83.9C47.8433 81.5754 49.0092 79.007 49.73 76.3H26.55C25.2104 76.2921 23.928 75.7565 22.9807 74.8093C22.0335 73.862 21.4979 72.5796 21.49 71.24V44.17C21.4926 42.8288 22.0266 41.5433 22.975 40.595C23.9233 39.6466 25.2088 39.1126 26.55 39.11ZM34.22 109C35.2483 109.002 36.253 109.308 37.1076 109.88C37.9622 110.452 38.6284 111.264 39.0223 112.214C39.4163 113.164 39.5204 114.209 39.3214 115.218C39.1225 116.227 38.6294 117.154 37.9044 117.883C37.1794 118.613 36.2548 119.111 35.2471 119.316C34.2393 119.52 33.1936 119.422 32.2415 119.034C31.2894 118.645 30.4735 117.984 29.8967 117.133C29.3199 116.281 29.0079 115.278 29 114.25C28.996 113.562 29.1281 112.88 29.3887 112.243C29.6493 111.606 30.0331 111.027 30.5183 110.539C31.0034 110.052 31.5802 109.664 32.2154 109.4C32.8507 109.136 33.532 109 34.22 109Z" fill="black" fill-opacity="0.1"/>
</g>
<defs>
<clipPath id="clip0">
<rect width="93.22" height="122.88" fill="white"/>
</clipPath>
</defs>
</svg>