<svg width="225" height="170" viewBox="0 0 225 170" fill="none" xmlns="http://www.w3.org/2000/svg">
<path fill-rule="evenodd" clip-rule="evenodd" d="M98.6561 74.2585C96.6566 75.7188 96.9748 78.5922 97.5768 80.6798C98.4632 83.7537 100.229 86.5993 102.243 89.0521C105.816 93.4035 111.881 98.2894 117.472 94.4693C122.451 91.0671 125.592 84.2022 126.676 78.4198C127.011 76.6328 127.458 73.9701 125.883 72.6267C123.556 70.6409 119.45 71.0022 116.641 71.2579C114.79 71.4261 113.005 71.9974 111.177 71.7293C106.928 71.1056 102.2 71.6705 98.6561 74.2585Z" fill="#FF5678"/>
<path fill-rule="evenodd" clip-rule="evenodd" d="M184.795 97.0291C180.744 102.205 173.858 103.023 167.741 102.973C164.069 102.942 160.389 102.663 156.788 101.91C154.847 101.503 152.919 100.964 151.043 100.317C149.804 99.8899 147.96 99.6763 147.432 98.3388C146.042 94.8105 147.065 90.3854 147.637 86.8039C147.929 84.9821 148.148 83.1495 148.431 81.3264C148.612 80.1599 148.699 78.8694 149.184 77.7781C149.752 76.4998 150.47 76.755 151.672 77.1081C153.327 77.5951 155.027 77.7974 156.729 78.0593C160.884 78.6983 164.508 79.987 168.284 81.8137C172.017 83.6195 175.638 85.4022 178.968 87.9133C180.655 89.1861 182.109 90.5673 183.463 92.1892C184.509 93.4423 186.071 95.3984 184.795 97.0291ZM167.088 120.021C167.056 120.578 160.708 118.896 159.872 118.707C154.391 117.468 148.801 116.058 143.626 113.82C138.796 111.731 134.54 109.341 130.739 105.63C128.967 103.9 127.373 102.079 125.848 100.139C125.084 99.1665 124.04 99.2794 123.188 98.4568C122.421 97.7164 121.833 97.1382 122.073 96.0314C123.988 96.5399 127.526 99.7363 129.511 98.1221C130.643 97.2022 129.074 96.2411 128.349 95.708C126.986 94.7055 125.821 93.4688 124.738 92.1708C126.598 92.534 128.329 93.2355 129.947 94.2121C130.666 94.646 133.13 96.2192 133.704 94.7195C134.057 93.7962 132.386 92.6361 131.865 92.1252C130.586 90.8712 129.205 89.4072 128.526 87.7211C130.205 87.3287 131.788 88.6362 132.932 89.7012C134.201 90.8836 135.757 92.1245 136.822 93.487C137.371 94.1896 137.49 95.0196 137.919 95.7776C138.402 96.6302 139.174 97.3611 139.912 97.992C141.334 99.2079 142.997 100.103 144.703 100.843C148.604 102.535 152.784 103.732 156.942 104.572C158.981 104.984 160.971 105.174 163.041 105.244C164.65 105.298 165.362 105.783 165.976 107.276C167.638 111.318 167.337 115.763 167.088 120.021ZM119.346 89.2306C118.416 90.1073 117.207 90.6574 116.235 91.5003C115.379 92.2421 114.392 93.0334 113.437 93.6333C112.418 94.2735 111.656 93.8245 110.738 93.2453C109.661 92.5657 108.422 92.2901 107.312 91.6821C103.475 89.5781 98.781 84.423 99.4973 79.6895C99.8007 77.6834 100.83 75.7094 102.7 74.7989C104.398 73.9726 106.866 73.5138 108.683 74.2048C109.708 74.5946 110.441 75.455 111.097 76.301C111.863 77.2872 112.156 77.1318 112.936 76.1806C114.331 74.4791 116.631 72.9863 118.906 73.0221C120.036 73.0403 121.159 73.2802 122.177 73.7528C122.315 73.817 122.392 74.0109 122.53 74.0767C122.7 74.1575 122.98 73.9894 123.098 74.0649C123.396 74.2551 123.694 74.849 123.866 75.1504C124.556 76.3597 125.798 78.7313 124.546 79.7495C124.545 79.75 124.602 81.1272 124.585 81.2842C124.496 82.1058 124.214 82.7841 123.851 83.5356C122.76 85.7927 121.15 87.5306 119.346 89.2306ZM121.201 108.329C120.32 108.605 119.37 105.823 120.216 105.379C121.022 104.955 121.999 108.079 121.201 108.329ZM107.361 105.003C107.055 106.053 106.926 107.246 106.18 108.101C105.497 107.285 105.429 105.777 106.092 104.938C106.471 104.459 107.694 103.854 107.361 105.003ZM135.559 86.5902C135.554 86.6168 136.62 87.1301 136.1 87.6913C135.39 88.4578 135.487 86.9659 135.559 86.5902ZM139.961 78.0256C139.949 79.0881 137.717 78.8316 137.732 77.7629C137.752 76.4476 139.975 76.8991 139.961 78.0256ZM137.296 69.1451C137.517 68.1723 141.401 66.8189 141.295 68.5145C141.242 69.3645 136.827 71.2134 137.296 69.1451ZM97.4806 102.137C97.0453 102.664 96.4268 102.872 95.9052 103.277C95.3578 103.701 94.9667 104.251 94.4888 104.749C93.1762 106.116 91.5961 107.239 90.18 108.495C87.5767 110.804 85.0828 113.286 82.1964 115.244C77.0384 118.742 71.0567 120.656 65.1189 122.331C64.6269 122.47 63.2099 123.03 62.7232 122.613C62.1982 122.163 62.4652 120.58 62.4894 119.981C62.5878 117.526 62.8719 115.042 62.8412 112.591C62.8284 111.584 62.5358 110.152 63.0572 109.231C63.6394 108.202 65.2652 107.901 66.2707 107.514C69.3273 106.337 72.2716 104.352 74.9716 102.513C78.2906 100.253 81.6425 97.9548 85.0582 95.8449C88.4044 93.7776 92.0956 92.3933 95.8283 91.2126C96.0012 91.5787 94.2201 92.7567 94.0164 92.9219C93.0399 93.7139 91.9776 94.5349 91.2527 95.5803C90.7394 96.3205 90.2132 97.9953 91.6302 98.0382C92.3171 98.0591 93.3326 97.3897 93.9556 97.1732C94.9843 96.8155 96.0445 96.5645 97.1207 96.4011C96.1954 97.4273 93.0595 99.2707 93.6301 100.977C94.1836 102.634 97.3857 100.701 98.4879 100.701C98.3072 101.278 97.8531 101.686 97.4806 102.137ZM59.6516 106.759C57.6009 107.486 55.499 107.899 53.3826 108.368C51.3653 108.815 49.5007 109.152 47.4344 108.89C44.5817 108.529 41.4246 107.338 41.063 104.073C40.6341 100.203 43.3466 96.6477 45.6757 93.8717C48.5104 90.4943 51.6933 87.4748 55.1431 84.7408C58.5888 82.0093 62.3081 79.6014 66.2045 77.5685C69.1689 76.0219 72.5168 75.0829 75.6512 73.9222C76.2476 73.7015 77.8968 72.9256 78.4545 73.5686C78.9054 74.0886 78.2919 74.9548 78.0865 75.4375C77.6857 76.3787 77.6305 77.3264 77.527 78.3368C77.065 82.8498 76.5086 87.3615 76.2526 91.8939C76.1814 93.1569 76.0557 94.4784 76.1289 95.7424C76.1693 96.4425 76.531 97.3341 76.2902 98.0177C75.8272 99.3316 73.7071 100.201 72.5834 100.788C70.572 101.839 68.442 102.623 66.4098 103.628C64.178 104.732 62.0049 105.925 59.6516 106.759ZM88.0913 77.4353C88.6542 77.3574 89.4973 77.2028 89.9992 77.5703C90.6535 78.0493 90.4819 78.7158 89.8774 79.0633C89.4002 79.338 88.2831 79.4131 87.8116 79.1638C87.0082 78.7395 87.1442 77.5665 88.0913 77.4353ZM91.2085 87.8854C90.7537 88.6486 89.0915 89.1491 89.2363 87.7249C89.3604 86.5055 92.0463 86.48 91.2085 87.8854ZM90.5915 66.3855C91.3228 66.6708 92.6497 66.915 92.8666 67.8626C93.0683 68.7445 92.2388 68.6862 91.6401 68.4434C91.1477 68.2442 88.9541 66.3702 90.5915 66.3855ZM205.156 100.029C204.729 98.3546 205.054 96.5012 204.818 94.7863C204.59 93.124 204.178 91.5964 203.588 90.0299C202.281 86.5617 200.783 83.4397 198.664 80.3959C194.674 74.6639 190.044 69.615 184.453 65.4284C178.934 61.2952 172.822 57.9362 166.348 55.5821C159.483 53.0854 152.572 52.2166 145.333 51.738C143.171 51.5953 141.011 51.4259 138.861 51.1508C137.29 50.9498 135.32 50.7021 133.766 51.1869C132.791 51.4917 132.245 52.349 133.309 52.9117C134.062 53.3105 135.049 53.3584 135.882 53.4644C134.876 56.6829 133.24 59.9126 130.647 62.1288C128.115 64.2926 124.727 65.0343 121.532 65.5831C119.8 65.8804 117.86 66.1106 116.1 65.9822C114.988 65.9014 114.12 65.3825 113.671 66.5367C113.36 67.3386 113.212 68.2185 112.801 67.0077C112.316 65.5762 112.077 65.5853 110.567 65.1787C107.477 64.3473 103.935 63.5887 101.24 61.7904C98.4437 59.9248 97.4712 56.9069 95.91 54.0966C95.524 53.402 94.3594 51.9961 94.9544 51.2001C95.4987 50.4723 97.2682 50.5449 98.0785 50.469C98.9337 50.3889 99.7941 50.3856 100.652 50.3519C101.149 50.3327 102.149 50.5379 101.949 49.7899C101.647 48.6625 98.4147 48.8071 97.612 48.7887C96.1192 48.7551 94.6057 48.7898 93.1204 48.9552C85.7558 49.7757 78.3249 51.2929 71.1982 53.3161C57.3713 57.2411 43.9798 64.4737 33.8891 74.8932C24.2029 84.8951 21.1342 101.539 27.0888 114.31C30.1834 120.947 36.8992 123.673 43.4092 125.875C46.8431 127.036 50.4791 127.945 54.1295 127.726C55.8811 127.62 57.5431 127.145 59.2515 126.788C59.9966 126.631 60.8445 126.382 61.6098 126.445C62.189 126.493 62.7456 127.028 63.289 126.744C63.6746 126.542 63.8422 125.962 64.3136 125.715C64.8796 125.418 65.5656 125.311 66.1768 125.162C67.8755 124.746 69.5204 124.072 71.1809 123.519C72.8981 122.947 74.5185 122.211 76.166 121.467C76.9979 121.091 78.923 119.563 79.4652 120.68C79.7122 121.19 79.607 122.173 79.6672 122.708C79.7726 123.644 79.8966 124.577 80.0321 125.509C80.3305 127.559 80.6878 129.601 81.0539 131.641C81.7146 135.321 82.5662 138.844 83.9901 142.306C85.1269 145.07 86.1249 148.203 88.2361 150.402C89.1576 151.362 90.4149 151.794 91.7367 151.492C93.2401 151.149 93.9885 149.773 94.9013 148.661C96.9093 146.213 100.225 144.338 103.286 143.662C107.035 142.835 110.687 144.045 114.265 145.073C118.05 146.16 121.903 147.196 125.619 148.503C129.081 149.721 132.819 151.52 136.573 151.363C139.848 151.227 142.906 148.542 145.267 146.496C147.639 144.441 150.604 141.432 154.015 141.674C155.708 141.794 157.251 142.617 158.9 142.951C160.711 143.319 162.638 143.371 164.479 143.508C166.765 143.678 171.878 143.077 172.724 140.307C172.849 139.896 172.85 139.05 172.311 138.886C171.816 138.735 171.563 139.318 171.093 139.292C170.138 139.237 169.392 137.56 168.867 136.91C166.749 134.288 163.845 132.332 161.469 129.964C158.786 127.289 156.495 124.049 154.473 120.853C155.387 120.614 156.373 121.011 157.258 121.2C158.333 121.429 159.38 121.707 160.439 122C161.607 122.324 162.791 122.547 163.976 122.794C164.86 122.977 166.033 123.033 166.831 123.48C167.527 123.87 167.916 124.288 168.781 124.402C169.66 124.517 170.563 124.42 171.447 124.414C173.836 124.397 176.22 124.353 178.598 124.098C187.002 123.199 195.909 119.618 200.962 112.512C202.336 110.579 203.444 108.438 204.143 106.166C204.689 104.392 205.631 101.892 205.156 100.029Z" fill="black"/>
<path fill-rule="evenodd" clip-rule="evenodd" d="M107.909 38.5684C106.414 39.0359 104.646 38.4858 103.787 37.1411C102.912 35.7738 102.314 34.1916 102.194 32.5628C102.079 31.0023 102.431 29.4223 103.344 28.1411C104.316 26.7782 106.298 25.2506 108.074 25.7239C108.448 25.8237 108.787 26.0639 109.122 26.3023C109.478 26.5551 109.831 26.8059 110.221 26.8842C110.321 26.9044 110.391 26.9234 110.444 26.9373C110.514 26.9564 110.552 26.9666 110.585 26.9588C110.624 26.95 110.656 26.9179 110.727 26.849C110.767 26.8096 110.82 26.7583 110.893 26.6925C111.043 26.5573 111.189 26.3536 111.331 26.1544H111.331C111.426 26.0205 111.52 25.8883 111.614 25.7805C111.793 25.5731 111.972 25.3635 112.152 25.1534C113.307 23.8032 114.485 22.427 115.897 21.3591C118.822 19.1462 122.711 18.101 126.34 18.153C128.549 18.1845 130.618 18.8441 132.676 19.5941C132.849 19.657 133.023 19.7195 133.197 19.7822L133.198 19.7824C134.85 20.3766 136.555 20.9894 137.878 22.1798C140.51 24.5476 141.195 28.468 141.626 31.822C142.092 35.4542 140.807 38.579 139.476 41.8163V41.8168L139.476 41.8174V41.8177C139.273 42.3104 139.07 42.8056 138.871 43.3054C137.464 46.8468 134.881 49.7158 131.811 51.9019C130.202 53.0469 128.425 53.7382 126.565 54.3443C126.179 54.47 125.796 54.6046 125.413 54.739H125.412H125.412C123.92 55.2623 122.433 55.7838 120.825 55.7813C117.755 55.7769 113.826 54.3082 112.518 51.2617C111.923 49.8745 112.502 49.6255 113.694 50.3794C113.902 50.5111 114.109 50.6441 114.316 50.777V50.7772H114.316L114.317 50.7778C115.829 51.7478 117.331 52.712 119.107 53.1386C123.024 54.0798 127.714 52.6217 131.148 50.6977C134.581 48.7744 136.886 45.8848 138.426 42.2871C139.98 38.6574 140.584 35.0807 139.984 31.1679C139.477 27.8518 138.466 24.8227 135.5 23.0227C129.097 19.1373 120.469 19.4503 114.775 24.4998C113.994 25.192 113.222 25.8655 112.417 26.5267C111.905 26.9469 111.303 27.4509 111.377 28.1774C111.394 28.3376 111.493 28.6159 111.605 28.9278C111.927 29.8273 112.349 31.0087 111.172 30.4617C110.687 30.2362 110.285 29.9292 109.889 29.6266C109.237 29.1281 108.6 28.6415 107.631 28.5517C105.973 28.3976 103.997 29.6801 103.501 31.2945C103.028 32.8349 103.871 34.9424 105.192 35.8258C105.935 36.323 106.746 36.2986 107.585 36.2734C107.669 36.271 107.754 36.2683 107.839 36.2663C107.903 36.2648 107.984 36.2606 108.076 36.2557C108.64 36.2256 109.626 36.1733 109.888 36.5955C110.428 37.4638 108.524 38.3765 107.909 38.5684ZM127.86 45.4399C128.14 44.8841 128.418 44.3344 128.732 43.8377C128.878 43.6073 129.116 43.4481 129.344 43.2956H129.344C129.409 43.2518 129.474 43.2084 129.535 43.1641C130.303 44.3696 129.545 45.661 128.891 46.7731C128.815 46.9022 128.741 47.0288 128.671 47.1525C128.464 47.5155 128.262 47.8936 128.058 48.275C127.623 49.0898 127.18 49.9192 126.667 50.6484C125.415 52.4254 122.691 50.5029 122.61 48.6765C122.548 47.2785 123.531 47.887 124.162 48.4091C124.812 48.947 125.12 49.0809 125.8 48.4935C126.716 47.7037 127.294 46.5591 127.86 45.4399ZM120.486 40.5154C120.762 38.6817 119.516 40.1057 119.249 40.9491C118.92 41.9896 118.648 43.4594 119.145 44.4921C120.059 46.3875 122.636 45.4842 123.875 44.4772C124.457 44.0051 125.271 43.0216 125.243 42.2019C125.195 40.7757 124.105 41.6308 123.434 42.1568H123.434C123.348 42.2238 123.27 42.2856 123.201 42.3365C123.173 42.3571 123.143 42.379 123.112 42.402C122.49 42.8651 121.253 43.7853 120.529 43.3299C119.863 42.9118 120.13 41.9186 120.34 41.1372C120.403 40.9041 120.46 40.6898 120.486 40.5154ZM124.172 33.1202C125.643 32.8251 127.538 32.9772 128.818 33.8175C130.467 34.8999 128.299 35.6793 127.359 35.7762C126.222 35.8931 124.769 35.9706 123.724 35.4086C122.244 34.6119 122.737 33.4084 124.172 33.1202ZM107.376 30.3716C106.251 30.1514 104.681 30.7234 105.456 32.071C106.034 33.0768 107.457 33.4153 108.572 33.6802C108.707 33.7123 108.838 33.7435 108.962 33.7745C110.201 34.0844 110.814 33.6275 110.387 32.2509C109.974 30.9186 108.589 30.6094 107.376 30.3716ZM130.863 44.4673C130.967 44.0319 131.571 42.3952 131.978 43.5967C132.041 43.7813 132.049 44.0522 132.057 44.3415C132.077 45.0727 132.101 45.9224 133.024 45.7989C133.501 45.7354 133.726 45.2537 133.936 44.8075C134.039 44.5863 134.139 44.3738 134.263 44.2251C135.522 42.7148 135.136 45.5714 134.807 46.2863C134.082 47.8619 132.052 48.9477 131.046 46.9486C130.671 46.2051 130.673 45.2666 130.863 44.4673ZM135.603 38.1153H135.603C136.187 38.7986 137.161 39.9379 137.799 39.1127C138.422 38.3072 137.35 37.059 136.816 36.4368C136.792 36.4097 136.77 36.3838 136.749 36.3593C136.734 36.3413 136.718 36.3223 136.7 36.3022C136.217 35.7342 134.978 34.2779 134.348 35.3687C133.955 36.0516 134.878 37.3388 135.317 37.7908C135.395 37.8711 135.492 37.9849 135.603 38.1153ZM118.448 51.5194C117.845 50.8221 117.909 49.5299 118.25 48.723C118.528 48.066 118.993 48.8793 119.263 49.3501C119.329 49.465 119.383 49.5593 119.42 49.6071C119.54 49.7636 119.714 49.9086 119.892 50.0576C120.263 50.3679 120.654 50.6951 120.629 51.1756C120.566 52.3497 118.978 52.1319 118.448 51.5194Z" fill="black"/>
<path fill-rule="evenodd" clip-rule="evenodd" d="M170.96 42.8421C170.298 42.6612 169.637 42.4804 168.98 42.2942C167.451 41.8608 168.896 40.8855 169.804 40.9541C170.508 41.007 171.194 41.2554 171.87 41.4995C172.169 41.6073 172.465 41.7145 172.76 41.8037C175.699 42.6929 178.424 43.6653 181.17 45.0454C181.58 45.2515 183.384 46.2283 182.191 46.6609C181.564 46.888 180.303 46.2044 179.419 45.7259C179.137 45.5729 178.894 45.441 178.722 45.3662C176.229 44.2833 173.587 43.5608 170.96 42.8421ZM195.923 64.788C186.09 58.6425 176.298 52.6233 165.177 49.1026C164.597 48.9193 164.417 48.3985 164.721 47.8825C165.041 47.3386 165.657 47.3586 166.203 47.3763L166.25 47.3778C167.689 47.4236 169.094 47.8814 170.455 48.3248L170.628 48.3812C173.74 49.3935 176.703 50.7977 179.626 52.2655C184.749 54.8381 189.68 57.9508 194.199 61.49C195.144 62.2296 196.113 62.829 197.14 63.4338C197.204 63.4714 197.27 63.5097 197.338 63.5491C197.973 63.9159 198.759 64.3705 198.988 65.0837C199.632 67.091 196.384 65.0762 195.923 64.788ZM37.143 62.9614C33.5496 65.7777 30.0382 68.7099 26.7895 71.924C25.6329 73.0684 24.6689 74.3773 23.7059 75.6855C23.2649 76.2845 22.8239 76.8832 22.3647 77.4658C22.3154 77.5283 22.2612 77.6013 22.2021 77.6808C21.8324 78.177 21.2795 78.9197 20.6762 78.8376C19.9084 78.7335 19.7533 77.4014 19.7777 76.8197C19.8616 74.8359 21.66 72.9201 22.9425 71.5541C24.3853 70.0182 25.9277 68.5214 27.503 67.1228C29.2373 65.5831 31.1194 64.2596 33.0374 62.964C33.7384 62.4906 34.4283 61.9896 35.1198 61.4878C36.2859 60.6416 37.4553 59.7929 38.6851 59.0693C39.6077 58.5266 41.1396 58.32 40.6376 59.9538C40.3442 60.9083 39.1922 61.631 38.1869 62.2617C37.7974 62.5061 37.43 62.7365 37.143 62.9614ZM24.2723 59.0569C26.2951 58.4225 28.1707 57.4377 30.0463 56.4529C31.2684 55.8112 32.4908 55.1695 33.7535 54.625C34.6617 54.2332 35.583 53.8748 36.5041 53.5164C37.3327 53.1939 38.161 52.8716 38.9799 52.5252C39.0571 52.4924 39.1406 52.4614 39.2265 52.4293C39.6554 52.2695 40.1421 52.088 40.2001 51.5789C40.2796 50.8741 39.8712 50.8951 39.3722 50.9208H39.3719C39.3399 50.9224 39.3073 50.9241 39.2744 50.9255C38.1371 50.977 36.9345 51.4848 35.7981 51.9647C35.329 52.1631 34.8708 52.3565 34.4334 52.511C34.0438 52.6487 33.6538 52.7831 33.264 52.9172C32.0432 53.3378 30.8259 53.7573 29.6352 54.2715C28.051 54.9554 26.4331 55.6631 25.0064 56.6477C24.9559 56.6827 24.9032 56.7183 24.8491 56.755C24.3767 57.0753 23.805 57.4632 23.6006 57.9922C23.3961 58.5204 23.5088 59.2966 24.2723 59.0569Z" fill="black"/>
<path fill-rule="evenodd" clip-rule="evenodd" d="M108.019 45.451C108.211 44.8861 110.575 38.7099 109.649 38.5237C108.669 38.3261 107.359 41.9096 107.075 42.557C106.024 44.9481 105.403 47.5136 104.915 50.0784C104.576 51.8643 104.278 53.6938 104.397 55.5195C104.488 56.9227 105.063 57.1352 106.011 57.9949C106.011 53.733 106.654 49.485 108.019 45.451Z" fill="black"/>
</svg>