<svg width="12" height="15" viewBox="0 0 12 15" fill="none" xmlns="http://www.w3.org/2000/svg">
<path d="M2.793 0.769C3.629 0.769 4.26233 0.978 4.693 1.396C4.94633 1.63667 5.14267 1.97233 5.282 2.403C5.42133 2.83367 5.491 3.44167 5.491 4.227V5.462H11.723V7.552H5.491V11.884C5.491 12.2387 5.54167 12.5047 5.643 12.682C5.74433 12.8467 5.97233 12.929 6.327 12.929C6.707 12.929 7.08067 12.8467 7.448 12.682C7.81533 12.5173 8.113 12.302 8.341 12.036C8.58167 11.77 8.702 11.485 8.702 11.181C8.702 11.067 8.65133 10.9593 8.55 10.858C8.44867 10.7567 8.25233 10.706 7.961 10.706C7.733 10.706 7.53033 10.725 7.353 10.763L7.049 8.825C7.505 8.711 8.056 8.654 8.702 8.654C9.44933 8.654 10.051 8.825 10.507 9.167C10.963 9.509 11.191 10.041 11.191 10.763C11.191 11.447 11.0327 12.055 10.716 12.587C10.3993 13.119 9.98133 13.5623 9.462 13.917C8.94267 14.2717 8.37267 14.544 7.752 14.734C7.144 14.9113 6.54867 15 5.966 15C5.434 15 4.98433 14.9367 4.617 14.81C4.26233 14.6833 3.97733 14.5187 3.762 14.316C3.62267 14.1767 3.48967 14.0183 3.363 13.841C3.249 13.6637 3.154 13.4167 3.078 13.1C3.01467 12.7833 2.983 12.359 2.983 11.827V7.552H1.387V5.462H2.983V4.322C2.983 3.84067 2.91967 3.47967 2.793 3.239C2.66633 2.99833 2.375 2.878 1.919 2.878C1.577 2.878 1.216 2.954 0.836 3.106L0.114 1.282C0.608 1.10467 1.05133 0.977999 1.444 0.901999C1.83667 0.813333 2.28633 0.769 2.793 0.769Z" fill="#BEBEBE"/>
</svg>
